<svg width="101" height="101" viewBox="0 0 101 101" fill="none" xmlns="http://www.w3.org/2000/svg">
<path d="M35.3403 2.61133L37.0715 7.93929C28.7402 10.5249 21.4632 15.5063 16.0461 22.0779L11.5078 18.7806C17.6176 11.2656 25.8728 5.56475 35.3403 2.61133Z" fill="#957AFF" fill-opacity="0.35"/>
<path d="M10.1326 20.5527L14.6638 23.8448C9.63479 30.6142 6.4942 38.8701 6.02132 47.8331H0.414062C0.891038 37.6393 4.43024 28.2462 10.1326 20.5527Z" fill="#957AFF" fill-opacity="0.35"/>
<path d="M0.360514 50.0762C0.360406 50.1191 0.360352 50.162 0.360352 50.205C0.360352 60.4312 3.44008 69.9382 8.72265 77.8489L13.2578 74.5539C8.64554 67.5698 5.96057 59.2009 5.96057 50.205C5.96057 50.162 5.96063 50.1191 5.96076 50.0762H0.360514Z" fill="#957AFF" fill-opacity="0.35"/>
<path d="M14.5389 76.3848C19.627 83.3025 26.6795 88.6859 34.8739 91.7125L33.1417 97.0438C23.8123 93.6454 15.7842 87.5396 10.0078 79.6768L14.5389 76.3848Z" fill="#957AFF" fill-opacity="0.35"/>
<path d="M64.4201 92.1113L66.1513 97.4393C61.1437 99.1295 55.7799 100.046 50.202 100.046C44.9978 100.046 39.9798 99.2481 35.2637 97.7684L36.9948 92.4406C41.1657 93.7434 45.6019 94.4455 50.202 94.4455C55.1758 94.4455 59.9578 93.6248 64.4201 92.1113Z" fill="#957AFF" fill-opacity="0.35"/>
<path d="M68.2576 96.6691C77.3701 93.1259 85.1826 86.9797 90.782 79.1437L86.2508 75.8516C81.339 82.7415 74.5012 88.1636 66.5234 91.3319L68.2576 96.6691Z" fill="#957AFF" fill-opacity="0.35"/>
<path d="M100.045 50.205C100.045 60.195 97.1059 69.4986 92.0452 77.2981L87.5068 74.0008C91.8989 67.1298 94.4447 58.9647 94.4447 50.205C94.4447 50.162 94.4447 50.1191 94.4445 50.0762H100.045C100.045 50.1191 100.045 50.162 100.045 50.205Z" fill="#957AFF" fill-opacity="0.35"/>
<path d="M99.9907 47.8346C99.5247 37.8745 96.1352 28.6787 90.6609 21.0859L86.1299 24.3779C90.9317 31.0459 93.9229 39.1048 94.3835 47.8346H99.9907Z" fill="#957AFF" fill-opacity="0.35"/>
<path d="M66.0739 2.94141L64.3428 8.26926C72.4644 11.0071 79.531 16.0383 84.7725 22.5926L89.3076 19.2976C83.3744 11.8001 75.3308 6.04901 66.0739 2.94141Z" fill="#957AFF"/>
<path d="M39.2283 7.3309C42.737 6.43554 46.4134 5.95959 50.2009 5.95959C54.3602 5.95959 58.3855 6.53356 62.2018 7.60659L63.934 2.2753C59.5714 1.02756 54.9642 0.359375 50.2009 0.359375C45.8095 0.359375 41.5508 0.927291 37.4941 1.99368L39.2283 7.3309Z" fill="#957AFF"/>
<path d="M36.5688 10.3887L38.2844 15.6688C31.8329 17.851 26.1996 21.8084 21.9659 26.9598L17.4688 23.6924C22.3903 17.6075 28.9923 12.9376 36.5688 10.3887Z" fill="#957AFF"/>
<path d="M13.8614 47.3363C14.338 40.4097 16.7699 34.0208 20.6092 28.7175L16.1189 25.4551C11.6128 31.675 8.78493 39.1903 8.2998 47.3363H13.8614Z" fill="#957AFF"/>
<path d="M19.1138 68.7413C15.7291 63.2464 13.7766 56.7751 13.7766 49.8479C13.7766 49.7501 13.777 49.6523 13.7777 49.5547H8.22757C8.2269 49.6523 8.22656 49.7501 8.22656 49.8479C8.22656 57.9944 10.5669 65.5944 14.6118 72.0121L19.1138 68.7413Z" fill="#957AFF"/>
<path d="M20.3375 70.5977C24.2474 76.1492 29.684 80.5481 36.0368 83.1839L34.3167 88.478C26.8396 85.4681 20.4376 80.3503 15.8467 73.8604L20.3375 70.5977Z" fill="#957AFF"/>
<path d="M60.5866 84.301L62.3022 89.5811C58.371 90.8117 54.189 91.475 49.8521 91.475C45.1445 91.475 40.6194 90.6935 36.3994 89.2531L38.1151 83.9727C41.7946 85.238 45.7432 85.925 49.8521 85.925C53.5903 85.925 57.1958 85.3564 60.5866 84.301Z" fill="#957AFF"/>
<path d="M64.4009 88.8624C72.0934 85.992 78.7087 80.9116 83.4745 74.3933L78.9841 71.1309C74.9004 76.7123 69.2515 81.0764 62.6836 83.577L64.4009 88.8624Z" fill="#957AFF"/>
<path d="M80.2402 69.2957L84.7374 72.5631C88.9991 66.0312 91.476 58.2288 91.476 49.8479C91.476 49.7501 91.4756 49.6523 91.4749 49.5547H85.9248C85.9256 49.6523 85.926 49.7501 85.926 49.8479C85.926 57.0096 83.8391 63.6838 80.2402 69.2957Z" fill="#957AFF"/>
<path d="M78.7051 28.1944C82.7683 33.5989 85.3484 40.1819 85.8409 47.339H91.4024C90.9036 38.9619 87.9272 31.2519 83.1959 24.9316L78.7051 28.1944Z" fill="#957AFF"/>
<path d="M62.1298 10.0625L60.4141 15.343C67.0713 17.3781 72.9103 21.2871 77.3164 26.455L81.8183 23.1841C76.7231 17.0823 69.9135 12.4617 62.1298 10.0625Z" fill="#957AFF"/>
<path d="M40.4107 15.0226C43.4199 14.2088 46.5851 13.7746 49.8518 13.7746C52.7498 13.7746 55.5681 14.1163 58.2684 14.7617L59.9886 9.4676C56.7438 8.65569 53.3481 8.22461 49.8518 8.22461C45.9866 8.22461 42.2445 8.75142 38.6934 9.73715L40.4107 15.0226Z" fill="#957AFF"/>
<path d="M38.971 17.7832L40.6867 23.0635C35.8099 24.7313 31.5333 27.6932 28.2666 31.5396L23.7656 28.2695C27.7236 23.4913 32.9694 19.8185 38.971 17.7832Z" fill="#957AFF"/>
<path d="M26.8956 33.2859L22.4052 30.0234C18.8327 34.96 16.5594 40.8985 16.0869 47.3373H21.6551C22.1143 42.118 23.9901 37.3052 26.8956 33.2859Z" fill="#957AFF"/>
<path d="M25.4238 64.1584C22.9592 59.96 21.5461 55.07 21.5461 49.8498C21.5461 49.752 21.5466 49.6543 21.5476 49.5566H15.9973C15.9965 49.6543 15.9961 49.752 15.9961 49.8498C15.9961 56.2894 17.794 62.309 20.9152 67.4341L25.4238 64.1584Z" fill="#957AFF"/>
<path d="M26.6249 66.0332C29.5819 70.27 33.6685 73.6599 38.448 75.7663L36.7252 81.0686C30.822 78.5832 25.7714 74.4722 22.1338 69.2962L26.6249 66.0332Z" fill="#957AFF"/>
<path d="M58.184 76.911L59.8997 82.1914C56.725 83.1767 53.3502 83.7074 49.8515 83.7074C45.982 83.7074 42.2641 83.0583 38.8008 81.8629L40.5166 76.582C43.4393 77.6026 46.5806 78.1574 49.8515 78.1574C52.7515 78.1574 55.5497 77.7213 58.184 76.911Z" fill="#957AFF"/>
<path d="M61.9977 81.4614C68.1159 79.1091 73.3783 75.0317 77.1891 69.825L72.6987 66.5625C69.5701 70.8323 65.2734 74.1926 60.2793 76.1727L61.9977 81.4614Z" fill="#957AFF"/>
<path d="M83.7056 49.8498C83.7056 56.5238 81.7745 62.7467 78.4404 67.9903L73.9395 64.7201C76.6127 60.3988 78.1556 55.3045 78.1556 49.8498C78.1556 49.752 78.1552 49.6543 78.1542 49.5566H83.7044C83.7052 49.6543 83.7056 49.752 83.7056 49.8498Z" fill="#957AFF"/>
<path d="M72.418 32.761L76.9091 29.498C80.7049 34.5362 83.1262 40.6685 83.6155 47.3375H78.0474C77.568 41.8889 75.5448 36.8834 72.418 32.761Z" fill="#957AFF"/>
<path d="M59.7276 17.457L58.0117 22.7379C63.091 24.2644 67.5693 27.1792 71.0058 31.0415L75.5144 27.7659C71.3846 22.9713 65.9341 19.3467 59.7276 17.457Z" fill="#957AFF"/>
<path d="M42.8151 22.4274C45.0645 21.852 47.4219 21.5461 49.8506 21.5461C51.9113 21.5461 53.9205 21.7663 55.856 22.1844L57.5788 16.8822C55.0966 16.3026 52.5094 15.9961 49.8506 15.9961C46.8234 15.9961 43.889 16.3934 41.0967 17.1388L42.8151 22.4274Z" fill="#957AFF"/>
<path d="M41.374 25.168L43.0899 30.4487C39.7875 31.5998 36.8692 33.5705 34.5787 36.1171L30.0693 32.8409C33.0584 29.3665 36.9472 26.6884 41.374 25.168Z" fill="#957AFF"/>
<path d="M33.1834 37.8484L28.693 34.5859C26.0543 38.2382 24.3381 42.6008 23.8857 47.3323H29.4685C29.897 43.8203 31.2122 40.5822 33.1834 37.8484Z" fill="#957AFF"/>
<path d="M31.753 59.5583C30.1985 56.6671 29.3166 53.3605 29.3166 49.8479C29.3166 49.75 29.3173 49.6523 29.3187 49.5547H23.7682C23.7671 49.6523 23.7666 49.75 23.7666 49.8479C23.7666 54.5802 25.0268 59.0182 27.2299 62.8446L31.753 59.5583Z" fill="#957AFF"/>
<path d="M32.9126 61.4551C34.9177 64.3744 37.6579 66.7494 40.8661 68.3131L39.1375 73.6333C34.8072 71.68 31.1058 68.5792 28.4209 64.7185L32.9126 61.4551Z" fill="#957AFF"/>
<path d="M55.782 69.5138L57.4978 74.7946C55.0797 75.5348 52.5121 75.9332 49.8516 75.9332C46.8202 75.9332 43.9096 75.4161 41.2031 74.4653L42.9192 69.1836C45.0848 69.9601 47.4188 70.3832 49.8516 70.3832C51.9135 70.3832 53.9044 70.0793 55.782 69.5138Z" fill="#957AFF"/>
<path d="M59.5917 74.0514C64.1365 72.221 68.0471 69.1478 70.9027 65.2527L66.4123 61.9902C64.2394 64.9483 61.2929 67.3028 57.8711 68.7558L59.5917 74.0514Z" fill="#957AFF"/>
<path d="M75.9362 49.8479C75.9362 54.8148 74.548 59.4575 72.1384 63.4092L67.6289 60.1328C69.3824 57.1085 70.3862 53.5954 70.3862 49.8479C70.3862 49.75 70.3855 49.6523 70.3842 49.5547H75.9346C75.9357 49.6523 75.9362 49.75 75.9362 49.8479Z" fill="#957AFF"/>
<path d="M66.1289 37.3259L70.6206 34.0625C73.4795 37.8185 75.3429 42.3734 75.8171 47.3337H70.2343C69.778 43.5947 68.3168 40.1659 66.1289 37.3259Z" fill="#957AFF"/>
<path d="M57.3235 24.8477L55.6074 30.1293C59.1067 31.1493 62.2197 33.0755 64.6755 35.6368L69.1985 32.3507C66.0406 28.8607 61.9517 26.2291 57.3235 24.8477Z" fill="#957AFF"/>
<path d="M45.2246 29.8371C46.7117 29.4946 48.2606 29.3137 49.8518 29.3137C51.0753 29.3137 52.2738 29.4207 53.4385 29.6258L55.1671 24.3056C53.451 23.9504 51.6732 23.7637 49.8518 23.7637C47.6623 23.7637 45.5359 24.0334 43.5039 24.5415L45.2246 29.8371Z" fill="#957AFF"/>
</svg>
