<svg width="109" height="20" viewBox="0 0 109 20" fill="none" xmlns="http://www.w3.org/2000/svg">
<path d="M108.4 0H6.81912C5.01058 0 3.27611 0.717517 1.99727 1.9947C0.718441 3.27189 0 5.00413 0 6.81035C0 8.61656 0.718441 10.3488 1.99727 11.626C3.27611 12.9032 5.01058 13.6207 6.81912 13.6207H12.0821C12.2358 13.6156 12.3889 13.6414 12.5323 13.6966C12.6758 13.7518 12.8066 13.8353 12.9171 13.942C13.0276 14.0488 13.1155 14.1766 13.1755 14.318C13.2355 14.4593 13.2664 14.6113 13.2664 14.7648C13.2664 14.9183 13.2355 15.0703 13.1755 15.2117C13.1155 15.353 13.0276 15.4809 12.9171 15.5876C12.8066 15.6943 12.6758 15.7778 12.5323 15.833C12.3889 15.8882 12.2358 15.914 12.0821 15.9089H6.79888V19.6805H12.0821C12.7351 19.691 13.3837 19.5715 13.99 19.3292C14.5964 19.0869 15.1484 18.7264 15.6139 18.2689C16.0794 17.8114 16.4491 17.266 16.7014 16.6644C16.9537 16.0628 17.0837 15.4171 17.0837 14.7648C17.0837 14.1126 16.9537 13.4668 16.7014 12.8652C16.4491 12.2636 16.0794 11.7182 15.6139 11.2607C15.1484 10.8032 14.5964 10.4428 13.99 10.2004C13.3837 9.95807 12.7351 9.83865 12.0821 9.8491H6.81912C6.01199 9.8491 5.23791 9.52888 4.66718 8.95889C4.09645 8.38889 3.77582 7.61581 3.77582 6.80972C3.77582 6.00362 4.09645 5.23054 4.66718 4.66054C5.23791 4.09055 6.01199 3.77033 6.81912 3.77033H101.561L91.5306 19.6818H103.649V15.9203H98.3611L108.4 0Z" fill="white"/>
<path d="M26.2685 5.98242V14.0209C26.2968 14.5596 26.1709 15.0951 25.9054 15.5649C25.7397 15.8052 25.5128 15.9971 25.2482 16.1207C24.9836 16.2444 24.6908 16.2955 24.3999 16.2687C23.9397 16.2868 23.4883 16.1388 23.1284 15.8517C22.9011 15.6079 22.7284 15.3185 22.6217 15.0028C22.5151 14.6872 22.4769 14.3524 22.5098 14.0209V5.98242H18.7295V13.959C18.6684 14.83 18.7987 15.7037 19.1112 16.5191C19.4237 17.3345 19.9109 18.0719 20.5387 18.6795C21.6425 19.5352 23 19.9997 24.3974 19.9997C25.7947 19.9997 27.1523 19.5352 28.256 18.6795C28.8832 18.0717 29.37 17.3345 29.6822 16.5194C29.9945 15.7043 30.1248 14.8309 30.0639 13.9603V5.98242H26.2685Z" fill="white"/>
<path d="M89.3126 5.98242H85.5361V19.6815H89.3126V5.98242Z" fill="white"/>
<path d="M62.1174 19.6811V16.6373H64.0214L65.7041 19.6811H70.2383L69.9436 19.1985L69.564 18.5781L69.5236 18.5124C68.9644 17.6001 68.3849 16.6601 67.9054 15.8148C68.5542 15.4528 69.0898 14.9184 69.4527 14.2707C69.9299 13.3514 70.1588 12.3236 70.1169 11.2889C70.1702 10.5847 70.0762 9.87715 69.8407 9.21128C69.6053 8.5454 69.2336 7.93578 68.7493 7.42123C67.4435 6.35019 65.7691 5.83346 64.086 5.98209H58.3447V19.6811H62.1174ZM62.1174 9.71072H64.3744C64.6376 9.67423 64.9054 9.69135 65.1618 9.76106C65.4181 9.83077 65.6577 9.95161 65.866 10.1163C66.0773 10.4682 66.1663 10.88 66.1191 11.2876C66.1688 11.7082 66.08 12.1336 65.866 12.4993C65.6585 12.6647 65.4195 12.786 65.1635 12.856C64.9075 12.9259 64.6398 12.943 64.3769 12.9062H62.1199L62.1174 9.71072Z" fill="white"/>
<path d="M42.7572 7.69421C42.1304 7.09585 41.3855 6.63465 40.5701 6.34008C39.7547 6.0455 38.8868 5.92402 38.0217 5.98341H32.3779V19.6824H36.1544V17.1908H38.0217C38.887 17.2505 39.7552 17.1289 40.5707 16.8338C41.3862 16.5388 42.1309 16.0768 42.7572 15.4775C43.6612 14.3815 44.1555 13.0058 44.1555 11.5858C44.1555 10.1659 43.6612 8.79014 42.7572 7.69421V7.69421ZM38.0837 13.4634H36.1544V9.71204H38.0825C39.5399 9.71204 40.1345 10.2528 40.1345 11.577C40.1345 12.9012 39.5399 13.4622 38.0825 13.4622L38.0837 13.4634Z" fill="white"/>
<path d="M55.7311 19.6821V15.9017H50.0379V14.3956H53.8157V11.257H50.0379V9.77492H55.7311V5.98438H46.2754V19.6821H55.7311Z" fill="white"/>
<path d="M79.3671 5.98242L77.2898 12.4958L75.1656 5.98242H71.0273L75.9487 19.6815H78.6384L83.4207 5.98242H79.3671Z" fill="white"/>
</svg>
