<svg width="78" height="15" viewBox="0 0 78 15" fill="none" xmlns="http://www.w3.org/2000/svg">
<path d="M77.7173 0.365234H5.17472C3.88311 0.365234 2.6444 0.878326 1.73109 1.79164C0.817779 2.70494 0.304688 3.94366 0.304688 5.23527C0.304688 6.52689 0.817779 7.7656 1.73109 8.67891C2.6444 9.59222 3.88311 10.1053 5.17472 10.1053H8.93279C9.14983 10.1053 9.35797 10.1915 9.51144 10.345C9.66491 10.4985 9.75113 10.7066 9.75113 10.9236C9.75113 11.1407 9.66491 11.3488 9.51144 11.5023C9.35797 11.6558 9.14983 11.742 8.93279 11.742H5.15936V14.4389H8.93279C9.86503 14.4389 10.7591 14.0686 11.4183 13.4094C12.0775 12.7502 12.4478 11.8561 12.4478 10.9239C12.4478 9.99163 12.0775 9.09757 11.4183 8.43837C10.7591 7.77917 9.86503 7.40884 8.93279 7.40884H5.17472C4.59832 7.40884 4.04552 7.17987 3.63794 6.77228C3.23036 6.3647 3.00138 5.8119 3.00138 5.2355C3.00138 4.65909 3.23036 4.10629 3.63794 3.69871C4.04552 3.29113 4.59832 3.06215 5.17472 3.06215H72.8326L65.672 14.4389H74.326V11.7492H70.5494L77.7173 0.365234Z" fill="white" fill-opacity="0.8"/>
<path d="M19.0681 4.64258V10.3906C19.0882 10.7756 18.9983 11.1584 18.8088 11.4942C18.6905 11.6662 18.5284 11.8035 18.3394 11.892C18.1503 11.9805 17.9411 12.0171 17.7332 11.9979C17.4045 12.0107 17.0821 11.9047 16.8252 11.6993C16.6627 11.5248 16.5393 11.3178 16.4631 11.0919C16.3869 10.866 16.3598 10.6264 16.3834 10.3892V4.64258H13.6797V10.3468C13.6797 11.8298 14.1138 12.9669 14.9712 13.7227C15.7593 14.3341 16.7283 14.6659 17.7257 14.6659C18.7232 14.6659 19.6922 14.3341 20.4803 13.7227C21.3386 12.9651 21.7713 11.8294 21.7713 10.3477V4.64258H19.0681Z" fill="white" fill-opacity="0.8"/>
<path d="M64.0866 4.64258H61.3896V14.4382H64.0866V4.64258Z" fill="white" fill-opacity="0.8"/>
<path d="M44.6645 14.4384V12.2614H46.0243L47.2264 14.4384H50.4649L50.2544 14.0932L49.9834 13.6496L49.9545 13.6044C49.5551 12.9521 49.1413 12.2795 48.7994 11.675C49.2628 11.4164 49.6454 11.0344 49.9048 10.5714C50.2456 9.914 50.409 9.17908 50.3791 8.43919C50.3791 7.21225 50.0597 6.30786 49.4024 5.67406C48.6846 4.98153 47.5955 4.64453 46.0717 4.64453H41.9717V14.4384H44.6645ZM44.6645 7.30937H46.2764C46.4643 7.28328 46.6556 7.29553 46.8386 7.34537C47.0217 7.39522 47.1928 7.48163 47.3416 7.59939C47.4926 7.85113 47.5562 8.14577 47.5223 8.43738C47.5578 8.73816 47.4944 9.04233 47.3416 9.30383C47.1934 9.42215 47.0227 9.50902 46.8399 9.55912C46.6571 9.60922 46.4659 9.6215 46.2782 9.5952H44.6663L44.6645 7.30937Z" fill="white" fill-opacity="0.8"/>
<path d="M30.839 5.86545C30.071 5.05231 28.9344 4.64258 27.4572 4.64258H23.4268V14.4382H26.1241V12.6565H27.4572C28.9353 12.6565 30.0733 12.2445 30.8394 11.431C31.5195 10.665 31.8772 9.66586 31.8378 8.64233C31.8763 7.6224 31.5183 6.62718 30.839 5.86545V5.86545ZM27.501 9.99034H26.1241V7.30923H27.501C28.5401 7.30923 28.9665 7.69547 28.9665 8.64278C28.9665 9.60003 28.5419 9.99034 27.501 9.99034Z" fill="white" fill-opacity="0.8"/>
<path d="M40.1043 14.4393V11.736H36.0385V10.6586H38.7386V8.4148H36.0404V7.355H40.1061V4.64453H33.3516V14.4393H40.1043Z" fill="white" fill-opacity="0.8"/>
<path d="M56.9845 4.64258L55.5005 9.30007L53.9831 4.64258H51.0273L54.5419 14.4382H56.4614L59.8766 4.64258H56.9845Z" fill="white" fill-opacity="0.8"/>
</svg>
