<svg width="90" height="126" viewBox="0 0 90 126" fill="none" xmlns="http://www.w3.org/2000/svg">
<path d="M31.7313 19.5117L33.2769 24.2686C25.8386 26.5771 19.3416 31.0246 14.505 36.8919L10.4531 33.948C15.9081 27.2384 23.2785 22.1486 31.7313 19.5117Z" fill="#957AFF"/>
<path d="M9.22573 35.5273L13.2713 38.4666C8.7813 44.5104 5.97731 51.8815 5.55511 59.8839H0.548828C0.974682 50.7826 4.13456 42.3962 9.22573 35.5273Z" fill="#957AFF"/>
<path d="M0.500145 61.8867C0.500049 61.925 0.5 61.9634 0.5 62.0017C0.5 71.1319 3.24965 79.6199 7.96605 86.6828L12.0151 83.741C7.8972 77.5054 5.5 70.0335 5.5 62.0017C5.5 61.9634 5.50005 61.925 5.50016 61.8867H0.500145Z" fill="#957AFF"/>
<path d="M13.1587 85.3789C17.7015 91.5552 23.9981 96.3616 31.3143 99.0638L29.7677 103.824C21.4383 100.79 14.2706 95.3382 9.11328 88.3181L13.1587 85.3789Z" fill="#957AFF"/>
<path d="M57.6936 99.418L59.2392 104.175C54.7684 105.684 49.9794 106.502 44.9994 106.502C40.3529 106.502 35.8728 105.79 31.6621 104.469L33.2077 99.7119C36.9316 100.875 40.8923 101.502 44.9994 101.502C49.4401 101.502 53.7096 100.769 57.6936 99.418Z" fill="#957AFF"/>
<path d="M61.1206 103.489C69.2564 100.325 76.2316 94.8378 81.2308 87.8416L77.1853 84.9023C72.7999 91.0538 66.695 95.8948 59.5723 98.7235L61.1206 103.489Z" fill="#957AFF"/>
<path d="M89.5009 62.0017C89.5009 70.921 86.8769 79.2275 82.3586 86.1911L78.3066 83.2472C82.228 77.1126 84.5009 69.8226 84.5009 62.0017C84.5009 61.9634 84.5009 61.925 84.5008 61.8867H89.5008C89.5009 61.925 89.5009 61.9634 89.5009 62.0017Z" fill="#957AFF"/>
<path d="M89.4514 59.8857C89.0353 50.9931 86.0091 42.7829 81.1216 36.0039L77.0762 38.9431C81.3633 44.8964 84.0339 52.0916 84.4452 59.8857H89.4514Z" fill="#957AFF"/>
<path d="M59.1706 19.8047L57.625 24.5615C64.8762 27.0059 71.1854 31.4979 75.8651 37.3497L79.9142 34.4079C74.6168 27.7139 67.4353 22.5792 59.1706 19.8047Z" fill="#957AFF"/>
<path d="M35.2026 23.7243C38.3352 22.9249 41.6176 22.5 44.9992 22.5C48.7127 22.5 52.3065 23.0124 55.7138 23.9705L57.2604 19.2106C53.3654 18.0966 49.252 17.5 44.9992 17.5C41.0785 17.5 37.2762 18.007 33.6543 18.9591L35.2026 23.7243Z" fill="#957AFF"/>
<path d="M33.0335 26.4492L34.5791 31.2061C28.7669 33.172 23.6918 36.7373 19.8776 41.3781L15.8262 38.4346C20.26 32.9526 26.2077 28.7456 33.0335 26.4492Z" fill="#957AFF"/>
<path d="M12.5768 59.7363C13.0062 53.4961 15.1972 47.7403 18.656 42.9626L14.6106 40.0234C10.5511 45.627 8.00345 52.3975 7.56641 59.7363H12.5768Z" fill="#957AFF"/>
<path d="M17.3083 79.0196C14.259 74.0692 12.5 68.2393 12.5 61.9985C12.5 61.9104 12.5004 61.8223 12.5011 61.7344H7.50091C7.5003 61.8223 7.5 61.9104 7.5 61.9985C7.5 69.3378 9.60837 76.1846 13.2525 81.9663L17.3083 79.0196Z" fill="#957AFF"/>
<path d="M18.411 80.6914C21.9335 85.6928 26.8313 89.6558 32.5545 92.0304L31.0049 96.7998C24.2687 94.0882 18.5012 89.4776 14.3652 83.6308L18.411 80.6914Z" fill="#957AFF"/>
<path d="M54.6711 93.038L56.2167 97.7948C52.6751 98.9035 48.9076 99.501 45.0004 99.501C40.7593 99.501 36.6826 98.797 32.8809 97.4994L34.4266 92.7422C37.7414 93.8821 41.2986 94.501 45.0004 94.501C48.3682 94.501 51.6163 93.9888 54.6711 93.038Z" fill="#957AFF"/>
<path d="M58.1077 97.1462C65.0378 94.5603 70.9976 89.9833 75.2911 84.111L71.2457 81.1719C67.5667 86.2002 62.4776 90.1318 56.5605 92.3846L58.1077 97.1462Z" fill="#957AFF"/>
<path d="M72.377 79.5191L76.4284 82.4627C80.2678 76.5781 82.4992 69.5489 82.4992 61.9985C82.4992 61.9104 82.4989 61.8223 82.4983 61.7344H77.4982C77.4989 61.8223 77.4992 61.9104 77.4992 61.9985C77.4992 68.4505 75.6191 74.4633 72.377 79.5191Z" fill="#957AFF"/>
<path d="M70.9941 42.4902C74.6547 47.3591 76.9791 53.2898 77.4228 59.7376H82.4332C81.9838 52.1907 79.3023 45.2447 75.0399 39.5508L70.9941 42.4902Z" fill="#957AFF"/>
<path d="M56.0613 26.1562L54.5156 30.9134C60.5131 32.7469 65.7735 36.2685 69.7429 40.9242L73.7987 37.9775C69.2085 32.4804 63.0737 28.3177 56.0613 26.1562Z" fill="#957AFF"/>
<path d="M36.4944 30.6243C39.2054 29.8911 42.057 29.5 44.9999 29.5C47.6108 29.5 50.1497 29.8079 52.5824 30.3893L54.1321 25.6198C51.2089 24.8884 48.1498 24.5 44.9999 24.5C41.5178 24.5 38.1465 24.9746 34.9473 25.8626L36.4944 30.6243Z" fill="#957AFF"/>
<path d="M35.1985 33.1094L36.7442 37.8664C32.3507 39.3689 28.4979 42.0373 25.5549 45.5026L21.5 42.5565C25.0658 38.2518 29.7917 34.943 35.1985 33.1094Z" fill="#957AFF"/>
<path d="M24.3196 47.0759L20.2742 44.1367C17.0557 48.5841 15.0077 53.934 14.582 59.7348H19.5984C20.0121 55.0327 21.702 50.6969 24.3196 47.0759Z" fill="#957AFF"/>
<path d="M22.9934 74.8891C20.7731 71.1068 19.5 66.7013 19.5 61.9985C19.5 61.9104 19.5004 61.8223 19.5013 61.7344H14.5011C14.5004 61.8223 14.5 61.9104 14.5 61.9985C14.5 67.7999 16.1197 73.223 18.9316 77.8402L22.9934 74.8891Z" fill="#957AFF"/>
<path d="M24.0753 76.5781C26.7393 80.3951 30.4209 83.4491 34.7268 85.3467L33.1747 90.1235C27.8565 87.8845 23.3064 84.1809 20.0293 79.5177L24.0753 76.5781Z" fill="#957AFF"/>
<path d="M52.5073 86.3784L54.0529 91.1355C51.1928 92.0232 48.1525 92.5013 45.0005 92.5013C41.5144 92.5013 38.165 91.9165 35.0449 90.8396L36.5907 86.082C39.2238 87.0015 42.0538 87.5013 45.0005 87.5013C47.6131 87.5013 50.134 87.1084 52.5073 86.3784Z" fill="#957AFF"/>
<path d="M55.9426 90.4771C61.4545 88.3579 66.1954 84.6846 69.6286 79.9938L65.5832 77.0547C62.7647 80.9014 58.8938 83.9287 54.3945 85.7125L55.9426 90.4771Z" fill="#957AFF"/>
<path d="M75.4995 61.9985C75.4995 68.0111 73.7598 73.6173 70.7561 78.3412L66.7012 75.3951C69.1095 71.5021 70.4995 66.9126 70.4995 61.9985C70.4995 61.9104 70.4991 61.8223 70.4982 61.7344H75.4984C75.4992 61.8223 75.4995 61.9104 75.4995 61.9985Z" fill="#957AFF"/>
<path d="M65.3301 46.6037L69.3761 43.6641C72.7958 48.203 74.9771 53.7275 75.418 59.7356H70.4016C69.9697 54.827 68.1471 50.3175 65.3301 46.6037Z" fill="#957AFF"/>
<path d="M53.8974 32.8164L52.3516 37.5739C56.9275 38.9491 60.962 41.5751 64.058 45.0547L68.1197 42.1037C64.3992 37.7842 59.4888 34.5188 53.8974 32.8164Z" fill="#957AFF"/>
<path d="M38.6614 37.294C40.6879 36.7756 42.8116 36.5 44.9997 36.5C46.8561 36.5 48.6662 36.6984 50.41 37.0751L51.962 32.2983C49.7258 31.7761 47.395 31.5 44.9997 31.5C42.2725 31.5 39.6289 31.8579 37.1133 32.5294L38.6614 37.294Z" fill="#957AFF"/>
<path d="M37.3622 39.7656L38.9079 44.523C35.9328 45.5601 33.3037 47.3355 31.2402 49.6297L27.1777 46.6781C29.8706 43.5481 33.374 41.1354 37.3622 39.7656Z" fill="#957AFF"/>
<path d="M29.9837 51.1892L25.9383 48.25C23.5611 51.5403 22.0149 55.4706 21.6074 59.7332H26.6369C27.023 56.5693 28.2078 53.652 29.9837 51.1892Z" fill="#957AFF"/>
<path d="M28.695 70.7467C27.2945 68.1419 26.5 65.163 26.5 61.9985C26.5 61.9103 26.5006 61.8223 26.5018 61.7344H21.5015C21.5005 61.8223 21.5 61.9104 21.5 61.9985C21.5 66.2619 22.6353 70.2601 24.6201 73.7073L28.695 70.7467Z" fill="#957AFF"/>
<path d="M29.7399 72.457C31.5463 75.087 34.0149 77.2267 36.9053 78.6354L35.348 83.4284C31.4468 81.6687 28.1122 78.8752 25.6934 75.397L29.7399 72.457Z" fill="#957AFF"/>
<path d="M50.3431 79.7155L51.8889 84.4729C49.7104 85.1398 47.3973 85.4987 45.0004 85.4987C42.2694 85.4987 39.6472 85.0328 37.209 84.1762L38.755 79.418C40.706 80.1175 42.8087 80.4987 45.0004 80.4987C46.8579 80.4987 48.6516 80.2249 50.3431 79.7155Z" fill="#957AFF"/>
<path d="M53.7747 83.8034C57.8691 82.1544 61.3922 79.3857 63.9648 75.8767L59.9194 72.9375C57.9618 75.6024 55.3073 77.7236 52.2246 79.0326L53.7747 83.8034Z" fill="#957AFF"/>
<path d="M68.4997 61.9985C68.4997 66.4732 67.249 70.6558 65.0782 74.2159L61.0156 71.2642C62.5953 68.5396 63.4997 65.3747 63.4997 61.9985C63.4997 61.9103 63.4991 61.8223 63.4979 61.7344H68.4982C68.4992 61.8223 68.4997 61.9104 68.4997 61.9985Z" fill="#957AFF"/>
<path d="M59.6641 50.7173L63.7106 47.7773C66.2863 51.1611 67.9649 55.2647 68.3921 59.7334H63.3626C62.9516 56.3649 61.6351 53.2759 59.6641 50.7173Z" fill="#957AFF"/>
<path d="M51.7316 39.4766L50.1855 44.2348C53.338 45.1537 56.1426 46.889 58.355 49.1965L62.4297 46.236C59.5848 43.0919 55.9011 40.7211 51.7316 39.4766Z" fill="#957AFF"/>
<path d="M40.8314 43.9716C42.1712 43.663 43.5666 43.5 45.0001 43.5C46.1023 43.5 47.1821 43.5964 48.2313 43.7812L49.7887 38.9882C48.2426 38.6682 46.641 38.5 45.0001 38.5C43.0276 38.5 41.1119 38.743 39.2812 39.2007L40.8314 43.9716Z" fill="#957AFF"/>
<circle cx="45" cy="62" r="16" fill="white"/>
</svg>
