<svg width="77" height="90" viewBox="0 0 77 90" fill="none" xmlns="http://www.w3.org/2000/svg">
<mask id="path-1-outside-1_7600_46997" maskUnits="userSpaceOnUse" x="-1.10059" y="75.9238" width="79" height="15" fill="black">
<rect fill="white" x="-1.10059" y="75.9238" width="79" height="15"/>
<path d="M6.51527 77.8759H8.41224V85.2589C8.41224 86.0986 8.23014 86.8017 7.86592 87.3683C7.5017 87.9349 7.00595 88.3623 6.37869 88.6507C5.75648 88.9339 5.06092 89.0756 4.29202 89.0756C3.49782 89.0756 2.78961 88.9339 2.16741 88.6507C1.5452 88.3623 1.05451 87.9349 0.695355 87.3683C0.341253 86.8017 0.164202 86.0986 0.164202 85.2589V77.8759H2.06118V85.2589C2.06118 85.79 2.15223 86.2276 2.33434 86.5716C2.51645 86.9105 2.77444 87.1609 3.10831 87.3228C3.44217 87.4847 3.83674 87.5656 4.29202 87.5656C4.74729 87.5656 5.13933 87.4847 5.46814 87.3228C5.80201 87.1609 6.06 86.9105 6.24211 86.5716C6.42422 86.2276 6.51527 85.79 6.51527 85.2589V77.8759ZM15.8399 86.7006C15.8399 86.5185 15.7944 86.3541 15.7033 86.2074C15.6122 86.0556 15.4377 85.919 15.1797 85.7976C14.9268 85.6762 14.5525 85.5649 14.0567 85.4637C13.6217 85.3676 13.2221 85.2538 12.8578 85.1223C12.4987 84.9857 12.1901 84.8213 11.9321 84.6291C11.6741 84.4369 11.4743 84.2092 11.3327 83.9462C11.191 83.6831 11.1202 83.3796 11.1202 83.0356C11.1202 82.7018 11.1936 82.3856 11.3403 82.0871C11.487 81.7887 11.6969 81.5256 11.9701 81.298C12.2432 81.0704 12.5746 80.8908 12.9641 80.7593C13.3586 80.6277 13.7987 80.562 14.2844 80.562C14.9723 80.562 15.5617 80.6783 16.0523 80.911C16.5481 81.1386 16.9275 81.4498 17.1905 81.8443C17.4536 82.2338 17.5851 82.6739 17.5851 83.1646H15.7564C15.7564 82.9471 15.7008 82.7448 15.5895 82.5576C15.4833 82.3654 15.3214 82.2111 15.1039 82.0947C14.8863 81.9733 14.6132 81.9126 14.2844 81.9126C13.9707 81.9126 13.7102 81.9632 13.5028 82.0644C13.3005 82.1605 13.1487 82.2869 13.0475 82.4438C12.9514 82.6006 12.9034 82.7726 12.9034 82.9597C12.9034 83.0963 12.9287 83.2203 12.9792 83.3315C13.0349 83.4378 13.1259 83.5364 13.2524 83.6275C13.3789 83.7135 13.5509 83.7944 13.7684 83.8703C13.991 83.9462 14.2692 84.0195 14.6031 84.0903C15.2303 84.2219 15.7691 84.3913 16.2193 84.5987C16.6746 84.8011 17.0236 85.0641 17.2664 85.3879C17.5092 85.7066 17.6306 86.1112 17.6306 86.6019C17.6306 86.9662 17.5522 87.3 17.3954 87.6035C17.2436 87.902 17.0211 88.1625 16.7277 88.3851C16.4343 88.6026 16.0827 88.7721 15.6729 88.8935C15.2683 89.0149 14.813 89.0756 14.3071 89.0756C13.5635 89.0756 12.9337 88.9441 12.4177 88.681C11.9018 88.4129 11.5097 88.0715 11.2416 87.6566C10.9786 87.2368 10.847 86.8017 10.847 86.3515H12.615C12.6353 86.6905 12.7288 86.9611 12.8958 87.1634C13.0678 87.3607 13.2802 87.5049 13.5332 87.5959C13.7912 87.6819 14.0567 87.7249 14.3299 87.7249C14.6587 87.7249 14.9344 87.6819 15.157 87.5959C15.3796 87.5049 15.549 87.3835 15.6654 87.2317C15.7817 87.0749 15.8399 86.8979 15.8399 86.7006ZM23.7835 89.0756C23.1765 89.0756 22.6276 88.9769 22.1369 88.7797C21.6513 88.5773 21.2365 88.2966 20.8925 87.9374C20.5536 87.5782 20.2931 87.1558 20.111 86.6702C19.9288 86.1846 19.8378 85.661 19.8378 85.0995V84.796C19.8378 84.1536 19.9314 83.5718 20.1185 83.0508C20.3057 82.5298 20.5662 82.0846 20.9001 81.7153C21.234 81.341 21.6285 81.0552 22.0838 80.8579C22.5391 80.6606 23.0323 80.562 23.5635 80.562C24.1502 80.562 24.6637 80.6606 25.1038 80.8579C25.5439 81.0552 25.9081 81.3334 26.1965 81.6926C26.4898 82.0467 26.7074 82.4691 26.849 82.9597C26.9957 83.4504 27.0691 83.9917 27.0691 84.5836V85.3651H20.7256V84.0524H25.2631V83.9082C25.253 83.5794 25.1873 83.2708 25.0659 82.9825C24.9495 82.6942 24.7699 82.4615 24.5271 82.2844C24.2843 82.1074 23.9606 82.0188 23.5559 82.0188C23.2523 82.0188 22.9817 82.0846 22.744 82.2161C22.5113 82.3426 22.3165 82.5272 22.1597 82.77C22.0029 83.0129 21.8815 83.3063 21.7955 83.6502C21.7145 83.9892 21.6741 84.3711 21.6741 84.796V85.0995C21.6741 85.4587 21.7221 85.7926 21.8182 86.1011C21.9194 86.4046 22.0661 86.6702 22.2583 86.8979C22.4506 87.1255 22.6833 87.3051 22.9564 87.4366C23.2296 87.5631 23.5407 87.6263 23.8897 87.6263C24.3298 87.6263 24.7219 87.5378 25.0659 87.3607C25.4098 87.1837 25.7083 86.9333 25.9612 86.6095L26.9249 87.5428C26.7478 87.8008 26.5177 88.0487 26.2344 88.2864C25.9511 88.5191 25.6046 88.7088 25.1948 88.8555C24.7902 89.0022 24.3197 89.0756 23.7835 89.0756ZM31.2643 82.2768V88.9238H29.4356V80.7137H31.1808L31.2643 82.2768ZM33.7758 80.6606L33.7607 82.3603C33.6494 82.3401 33.528 82.3249 33.3965 82.3148C33.27 82.3047 33.1435 82.2996 33.0171 82.2996C32.7034 82.2996 32.4277 82.3451 32.19 82.4362C31.9522 82.5222 31.7524 82.6486 31.5905 82.8156C31.4337 82.9774 31.3123 83.1747 31.2263 83.4074C31.1403 83.6401 31.0897 83.9006 31.0746 84.189L30.6572 84.2193C30.6572 83.7034 30.7078 83.2253 30.809 82.7852C30.9102 82.3451 31.0619 81.9581 31.2643 81.6243C31.4717 81.2904 31.7296 81.0299 32.0382 80.8427C32.3519 80.6556 32.7135 80.562 33.1233 80.562C33.2346 80.562 33.3535 80.5721 33.4799 80.5923C33.6114 80.6126 33.7101 80.6353 33.7758 80.6606ZM37.6675 82.4665V88.9238H35.8388V80.7137H37.5613L37.6675 82.4665ZM37.3412 84.5153L36.7494 84.5077C36.7544 83.9259 36.8354 83.3923 36.9922 82.9066C37.1541 82.421 37.3767 82.0037 37.6599 81.6546C37.9483 81.3056 38.2923 81.0375 38.6919 80.8503C39.0915 80.6581 39.5367 80.562 40.0274 80.562C40.4219 80.562 40.7786 80.6176 41.0973 80.7289C41.421 80.8351 41.6967 81.0097 41.9243 81.2525C42.157 81.4953 42.3341 81.8114 42.4555 82.201C42.5769 82.5854 42.6376 83.0584 42.6376 83.6199V88.9238H40.8013V83.6123C40.8013 83.2177 40.7432 82.9066 40.6268 82.679C40.5155 82.4463 40.3511 82.2819 40.1336 82.1858C39.9211 82.0846 39.6556 82.034 39.3369 82.034C39.0232 82.034 38.7425 82.0998 38.4946 82.2313C38.2467 82.3628 38.0368 82.5424 37.8648 82.77C37.6979 82.9977 37.5689 83.2607 37.4778 83.5592C37.3868 83.8576 37.3412 84.1763 37.3412 84.5153ZM50.0652 87.2773V83.3619C50.0652 83.0685 50.0121 82.8156 49.9059 82.6031C49.7997 82.3906 49.6378 82.2262 49.4203 82.1099C49.2078 81.9936 48.9397 81.9354 48.616 81.9354C48.3175 81.9354 48.0595 81.986 47.842 82.0871C47.6245 82.1883 47.455 82.3249 47.3336 82.4969C47.2122 82.6689 47.1515 82.8636 47.1515 83.0811H45.3304C45.3304 82.7574 45.4088 82.4438 45.5656 82.1402C45.7224 81.8367 45.9501 81.5661 46.2485 81.3283C46.547 81.0906 46.9036 80.9034 47.3184 80.7668C47.7332 80.6303 48.1986 80.562 48.7146 80.562C49.3317 80.562 49.8781 80.6657 50.3536 80.8731C50.8341 81.0805 51.211 81.3941 51.4842 81.814C51.7624 82.2288 51.9015 82.7498 51.9015 83.3771V87.0269C51.9015 87.4012 51.9268 87.7376 51.9774 88.036C52.033 88.3294 52.1114 88.5849 52.2126 88.8024V88.9238H50.3384C50.2524 88.7265 50.1841 88.4761 50.1335 88.1726C50.088 87.8641 50.0652 87.5656 50.0652 87.2773ZM50.3308 83.931L50.346 85.0616H49.0333C48.6944 85.0616 48.3959 85.0945 48.1379 85.1602C47.8799 85.2209 47.6649 85.312 47.4929 85.4334C47.321 85.5548 47.192 85.7015 47.106 85.8735C47.02 86.0455 46.977 86.2402 46.977 86.4578C46.977 86.6753 47.0276 86.8751 47.1287 87.0572C47.2299 87.2343 47.3766 87.3734 47.5688 87.4745C47.7661 87.5757 48.0039 87.6263 48.2821 87.6263C48.6564 87.6263 48.9827 87.5504 49.2609 87.3987C49.5442 87.2418 49.7668 87.0521 49.9287 86.8296C50.0905 86.6019 50.1765 86.3869 50.1866 86.1846L50.7785 86.9965C50.7178 87.2039 50.6141 87.4265 50.4674 87.6642C50.3207 87.902 50.1285 88.1296 49.8907 88.3471C49.658 88.5596 49.3773 88.7341 49.0485 88.8707C48.7247 89.0073 48.3504 89.0756 47.9255 89.0756C47.3892 89.0756 46.9112 88.9694 46.4913 88.7569C46.0715 88.5394 45.7427 88.2485 45.5049 87.8843C45.2672 87.515 45.1483 87.0977 45.1483 86.6323C45.1483 86.1972 45.2292 85.8128 45.3911 85.4789C45.558 85.14 45.8008 84.8567 46.1195 84.6291C46.4433 84.4014 46.8379 84.2294 47.3032 84.1131C47.7686 83.9917 48.2998 83.931 48.8967 83.931H50.3308ZM56.5747 82.3831V88.9238H54.7461V80.7137H56.4685L56.5747 82.3831ZM56.2788 84.5153L55.6566 84.5077C55.6566 83.9411 55.7274 83.4175 55.8691 82.937C56.0107 82.4564 56.2181 82.0391 56.4913 81.685C56.7644 81.3258 57.1034 81.0501 57.5081 80.8579C57.9178 80.6606 58.3908 80.562 58.927 80.562C59.3013 80.562 59.6428 80.6176 59.9514 80.7289C60.265 80.8351 60.5356 81.0046 60.7633 81.2373C60.996 81.47 61.173 81.7684 61.2944 82.1327C61.4209 82.4969 61.4841 82.937 61.4841 83.453V88.9238H59.6554V83.6123C59.6554 83.2127 59.5947 82.899 59.4733 82.6714C59.357 82.4438 59.1875 82.2819 58.9649 82.1858C58.7474 82.0846 58.4869 82.034 58.1834 82.034C57.8394 82.034 57.546 82.0998 57.3032 82.2313C57.0654 82.3628 56.8707 82.5424 56.7189 82.77C56.5672 82.9977 56.4559 83.2607 56.385 83.5592C56.3142 83.8576 56.2788 84.1763 56.2788 84.5153ZM61.3703 84.0296L60.5129 84.2193C60.5129 83.7236 60.5812 83.2557 60.7177 82.8156C60.8594 82.3704 61.0642 81.9809 61.3324 81.647C61.6055 81.3081 61.9419 81.0425 62.3415 80.8503C62.7412 80.6581 63.199 80.562 63.715 80.562C64.1348 80.562 64.5092 80.6201 64.838 80.7365C65.1718 80.8478 65.4551 81.0248 65.6878 81.2676C65.9205 81.5105 66.0976 81.8266 66.219 82.2161C66.3404 82.6006 66.4011 83.066 66.4011 83.6123V88.9238H64.5648V83.6047C64.5648 83.1899 64.5041 82.8687 64.3827 82.6411C64.2663 82.4134 64.0994 82.2566 63.8819 82.1706C63.6644 82.0795 63.4038 82.034 63.1003 82.034C62.8171 82.034 62.5667 82.0871 62.3491 82.1934C62.1367 82.2945 61.9571 82.4387 61.8104 82.6259C61.6637 82.808 61.5524 83.0179 61.4765 83.2557C61.4057 83.4934 61.3703 83.7514 61.3703 84.0296ZM72.8347 89.0756C72.2277 89.0756 71.6788 88.9769 71.1881 88.7797C70.7025 88.5773 70.2877 88.2966 69.9437 87.9374C69.6048 87.5782 69.3443 87.1558 69.1622 86.6702C68.98 86.1846 68.889 85.661 68.889 85.0995V84.796C68.889 84.1536 68.9826 83.5718 69.1697 83.0508C69.3569 82.5298 69.6174 82.0846 69.9513 81.7153C70.2852 81.341 70.6797 81.0552 71.135 80.8579C71.5903 80.6606 72.0835 80.562 72.6146 80.562C73.2014 80.562 73.7149 80.6606 74.155 80.8579C74.5951 81.0552 74.9593 81.3334 75.2476 81.6926C75.541 82.0467 75.7586 82.4691 75.9002 82.9597C76.0469 83.4504 76.1203 83.9917 76.1203 84.5836V85.3651H69.7768V84.0524H74.3143V83.9082C74.3042 83.5794 74.2385 83.2708 74.117 82.9825C74.0007 82.6942 73.8211 82.4615 73.5783 82.2844C73.3355 82.1074 73.0117 82.0188 72.6071 82.0188C72.3035 82.0188 72.0329 82.0846 71.7952 82.2161C71.5625 82.3426 71.3677 82.5272 71.2109 82.77C71.0541 83.0129 70.9327 83.3063 70.8467 83.6502C70.7657 83.9892 70.7253 84.3711 70.7253 84.796V85.0995C70.7253 85.4587 70.7733 85.7926 70.8694 86.1011C70.9706 86.4046 71.1173 86.6702 71.3095 86.8979C71.5018 87.1255 71.7344 87.3051 72.0076 87.4366C72.2808 87.5631 72.5919 87.6263 72.9409 87.6263C73.381 87.6263 73.7731 87.5378 74.117 87.3607C74.461 87.1837 74.7595 86.9333 75.0124 86.6095L75.9761 87.5428C75.799 87.8008 75.5689 88.0487 75.2856 88.2864C75.0023 88.5191 74.6558 88.7088 74.246 88.8555C73.8414 89.0022 73.3709 89.0756 72.8347 89.0756Z"/>
</mask>
<circle cx="38.1009" cy="34.6024" r="17.9207" fill="white"/>
<path opacity="0.35" d="M29.5471 9.69727L31.2785 15.0258C27.9462 16.1873 25.0015 18.1758 22.6903 20.7455L18.1401 17.4396C21.1563 13.9338 25.0802 11.2315 29.5471 9.69727Z" fill="#957AFF"/>
<path opacity="0.35" d="M21.2826 22.4912L16.7516 19.1992C14.0891 22.8845 12.3573 27.2866 11.9009 32.061H17.5341C17.9666 28.5172 19.2936 25.2497 21.2826 22.4912Z" fill="#957AFF"/>
<path d="M19.8395 44.3969C18.2709 41.4795 17.381 38.143 17.381 34.5986C17.381 34.4998 17.3817 34.4012 17.3831 34.3027H11.7824C11.7813 34.4012 11.7808 34.4998 11.7808 34.5986C11.7808 39.3737 13.0524 43.8519 15.2754 47.7129L19.8395 44.3969Z" fill="#957AFF"/>
<path d="M21.0099 46.3125C23.0331 49.2582 25.7981 51.6547 29.0354 53.2326L27.2911 58.6009C22.9216 56.63 19.1867 53.5011 16.4775 49.6054L21.0099 46.3125Z" fill="#957AFF"/>
<path d="M44.0863 54.4426L45.8176 59.7711C43.3776 60.5181 40.7868 60.92 38.1022 60.92C35.0434 60.92 32.1064 60.3982 29.3755 59.4389L31.1071 54.1094C33.2923 54.8929 35.6474 55.3198 38.1022 55.3198C40.1828 55.3198 42.1917 55.0132 44.0863 54.4426Z" fill="#957AFF"/>
<path d="M47.9296 59.0219C52.5154 57.1749 56.4614 54.0739 59.3429 50.1435L54.8119 46.8516C52.6193 49.8364 49.6461 52.2122 46.1934 53.6783L47.9296 59.0219Z" fill="#957AFF"/>
<path d="M64.4225 34.5986C64.4225 39.6105 63.0217 44.2952 60.5903 48.2826L56.04 44.9766C57.8094 41.9249 58.8223 38.38 58.8223 34.5986C58.8223 34.4998 58.8216 34.4012 58.8202 34.3027H64.4209C64.422 34.4012 64.4225 34.4998 64.4225 34.5986Z" fill="#957AFF"/>
<path d="M54.5259 21.9629L59.0582 18.6699C61.943 22.4599 63.8232 27.0561 64.3017 32.0613H58.6684C58.208 28.2883 56.7336 24.8286 54.5259 21.9629Z" fill="#957AFF"/>
<path d="M45.6418 9.375L43.9102 14.7045C47.4411 15.7336 50.5823 17.6773 53.0603 20.2618L57.6242 16.9459C54.4378 13.4244 50.3118 10.7689 45.6418 9.375Z" fill="#957AFF"/>
<path d="M33.433 14.4077C34.9336 14.0621 36.4965 13.8795 38.1021 13.8795C39.3367 13.8795 40.546 13.9875 41.7213 14.1945L43.4655 8.82616C41.7339 8.46767 39.94 8.2793 38.1021 8.2793C35.8929 8.2793 33.7472 8.55148 31.6968 9.06414L33.433 14.4077Z" fill="#957AFF"/>
<path d="M49.9496 2.69839C32.4986 -4.01442 12.9099 4.69064 6.19708 22.1417C-0.515727 39.5927 8.18933 59.1814 25.6404 65.8942C43.0914 72.607 62.6801 63.902 69.3929 46.4509C76.1057 28.9999 67.4007 9.4112 49.9496 2.69839ZM27.6299 60.7221C13.0353 55.1081 5.75511 38.7258 11.3691 24.1312C16.9832 9.5366 33.3655 2.25642 47.9601 7.87046C62.5547 13.4845 69.8349 29.8668 64.2208 44.4614C58.6068 59.056 42.2245 66.3362 27.6299 60.7221Z" fill="url(#paint0_angular_7600_46997)"/>
<circle cx="2.775" cy="2.775" r="2.775" transform="matrix(0.35902 -0.93333 -0.93333 -0.35902 10.5029 26.4082)" fill="#0077FF"/>
<path d="M39.2946 27.7154V41.9199H35.8703V27.7154H39.2946ZM43.5677 27.7154V30.3592H31.6948V27.7154H43.5677Z" fill="#26242A"/>
<defs>
<radialGradient id="paint0_angular_7600_46997" cx="0" cy="0" r="1" gradientUnits="userSpaceOnUse" gradientTransform="translate(37.795 34.2963) rotate(-158.96) scale(33.855)">
<stop stop-color="#0077FF"/>
<stop offset="0.175675" stop-color="#0077FF"/>
<stop offset="1" stop-color="#0077FF" stop-opacity="0"/>
</radialGradient>
</defs>
</svg>
